<?xml version="1.0" encoding="UTF-8"?> <svg xmlns="http://www.w3.org/2000/svg" width="32" height="33" viewBox="0 0 32 33" fill="none" stroke="#FEFCFD" stroke-width="2.89044"><path d="M1.39087 10.4301V25.0688V29.5921C1.39087 30.5939 2.19793 31.406 3.1935 31.406H15.4406C16.4362 31.406 17.2433 30.5939 17.2433 29.5921V25.0688M1.39087 10.4301H17.2433M1.39087 10.4301L9.34085 2.43024C9.67893 2.09004 10.1374 1.89893 10.6155 1.89893H25.7212M17.2433 25.0688V10.4301M17.2433 25.0688L25.7212 16.5377M17.2433 25.0688L21.3546 29.2059C22.0585 29.9143 23.1999 29.9143 23.9038 29.2059L29.8325 23.2401C30.5365 22.5317 30.5365 21.3831 29.8325 20.6748L25.7212 16.5377M17.2433 10.4301L25.7212 1.89893M25.7212 1.89893V16.5377"></path></svg> 